<svg width="600" height="600" viewBox="0 0 600 600" fill="none" xmlns="http://www.w3.org/2000/svg">
<g opacity="0.8">
<path d="M444.5 130.5C512.1 169.3 543.8 259.9 528.2 342.3C512.6 424.7 449.7 498.9 373.1 528.4C296.5 557.9 206.2 542.7 146.4 492.2C86.6 441.7 57.3 355.9 74.9 276.5C92.5 197.1 157 124.1 230.1 94.6C303.2 65.1 376.9 91.7 444.5 130.5Z" fill="#F3E5AB" fill-opacity="0.4"/>
<path d="M386.1 190.5C431.3 222 435.5 292.4 411.4 345.5C387.3 398.6 334.9 434.4 280.4 433.9C225.9 433.4 169.3 396.6 150.8 346.1C132.3 295.6 151.9 231.4 191.9 188.7C231.9 146 292.3 224.8 386.1 190.5Z" fill="#C5A059" fill-opacity="0.3"/>
<path d="M280.5 250C315.5 250 345.5 275 345.5 310C345.5 345 315.5 370 280.5 370C245.5 370 215.5 345 215.5 310C215.5 275 245.5 250 280.5 250Z" stroke="#2C3E50" stroke-width="2"/>
<circle cx="450" cy="150" r="10" fill="#2C3E50"/>
<circle cx="100" cy="450" r="15" fill="#C5A059"/>
<path d="M500 500L550 550" stroke="#C5A059" stroke-width="4" stroke-linecap="round"/>
<path d="M50 50L100 100" stroke="#2C3E50" stroke-width="2" stroke-linecap="round"/>
</g>
</svg>
